<mxfile host="app.diagrams.net" modified="2021-10-15T03:55:43.847Z" agent="5.0 (Macintosh; Intel Mac OS X 10_15_7) AppleWebKit/537.36 (KHTML, like Gecko) Chrome/94.0.4606.81 Safari/537.36" etag="7wMTKIy2yys5ysH8o16W" version="15.5.2" type="github">
  <diagram name="Page-1" id="74e2e168-ea6b-b213-b513-2b3c1d86103e">
    <mxGraphModel dx="946" dy="1464" grid="1" gridSize="10" guides="1" tooltips="1" connect="1" arrows="1" fold="1" page="1" pageScale="1" pageWidth="1100" pageHeight="850" background="none" math="0" shadow="0">
      <root>
        <mxCell id="0" />
        <mxCell id="1" parent="0" />
        <mxCell id="77e6c97f196da883-1" value="插件小组内部协作流程" style="swimlane;html=1;childLayout=stackLayout;startSize=20;rounded=0;shadow=0;labelBackgroundColor=none;strokeWidth=1;fontFamily=Verdana;fontSize=8;align=center;" parent="1" vertex="1">
          <mxGeometry x="70" y="-60" width="880" height="680" as="geometry" />
        </mxCell>
        <mxCell id="77e6c97f196da883-2" value="项目经理" style="swimlane;html=1;startSize=20;" parent="77e6c97f196da883-1" vertex="1">
          <mxGeometry y="20" width="160" height="660" as="geometry" />
        </mxCell>
        <mxCell id="4AHe8ReUwOb6yBchw7mW-1" value="插件需求" style="rounded=0;whiteSpace=wrap;html=1;fillColor=#FFCE9F;" vertex="1" parent="77e6c97f196da883-2">
          <mxGeometry x="20" y="60" width="120" height="60" as="geometry" />
        </mxCell>
        <mxCell id="4AHe8ReUwOb6yBchw7mW-14" value="插件上线" style="rounded=0;whiteSpace=wrap;html=1;fillColor=#FFCE9F;" vertex="1" parent="77e6c97f196da883-2">
          <mxGeometry x="20" y="530" width="120" height="60" as="geometry" />
        </mxCell>
        <mxCell id="77e6c97f196da883-3" value="插件负责人/产品经理" style="swimlane;html=1;startSize=20;" parent="77e6c97f196da883-1" vertex="1">
          <mxGeometry x="160" y="20" width="160" height="660" as="geometry" />
        </mxCell>
        <mxCell id="4AHe8ReUwOb6yBchw7mW-2" value="沟通需求/规划排期" style="rounded=0;whiteSpace=wrap;html=1;fillColor=#D5E8D4;" vertex="1" parent="77e6c97f196da883-3">
          <mxGeometry x="20" y="60" width="120" height="60" as="geometry" />
        </mxCell>
        <mxCell id="4AHe8ReUwOb6yBchw7mW-16" value="插件发布" style="rounded=0;whiteSpace=wrap;html=1;fillColor=#D5E8D4;" vertex="1" parent="77e6c97f196da883-3">
          <mxGeometry x="20" y="530" width="120" height="60" as="geometry" />
        </mxCell>
        <mxCell id="77e6c97f196da883-4" value="插件开发人员" style="swimlane;html=1;startSize=20;" parent="77e6c97f196da883-1" vertex="1">
          <mxGeometry x="320" y="20" width="240" height="660" as="geometry" />
        </mxCell>
        <mxCell id="4AHe8ReUwOb6yBchw7mW-6" value="插件开发" style="rounded=0;whiteSpace=wrap;html=1;fillColor=#B9E0A5;" vertex="1" parent="77e6c97f196da883-4">
          <mxGeometry x="50" y="200" width="120" height="60" as="geometry" />
        </mxCell>
        <mxCell id="4AHe8ReUwOb6yBchw7mW-40" value="插件开发" style="rounded=0;whiteSpace=wrap;html=1;fillColor=#B9E0A5;" vertex="1" parent="77e6c97f196da883-4">
          <mxGeometry x="50" y="340" width="120" height="60" as="geometry" />
        </mxCell>
        <mxCell id="4AHe8ReUwOb6yBchw7mW-4" style="edgeStyle=orthogonalEdgeStyle;rounded=0;orthogonalLoop=1;jettySize=auto;html=1;exitX=1;exitY=0.5;exitDx=0;exitDy=0;entryX=0;entryY=0.5;entryDx=0;entryDy=0;" edge="1" parent="77e6c97f196da883-1" source="4AHe8ReUwOb6yBchw7mW-1" target="4AHe8ReUwOb6yBchw7mW-2">
          <mxGeometry relative="1" as="geometry" />
        </mxCell>
        <mxCell id="4AHe8ReUwOb6yBchw7mW-30" style="edgeStyle=orthogonalEdgeStyle;rounded=0;orthogonalLoop=1;jettySize=auto;html=1;exitX=1;exitY=0.5;exitDx=0;exitDy=0;entryX=0;entryY=0.5;entryDx=0;entryDy=0;fontColor=#FF3333;strokeColor=default;" edge="1" parent="77e6c97f196da883-1" source="4AHe8ReUwOb6yBchw7mW-2" target="4AHe8ReUwOb6yBchw7mW-29">
          <mxGeometry relative="1" as="geometry" />
        </mxCell>
        <mxCell id="77e6c97f196da883-5" value="技术专家" style="swimlane;html=1;startSize=20;" parent="77e6c97f196da883-1" vertex="1">
          <mxGeometry x="560" y="20" width="160" height="660" as="geometry" />
        </mxCell>
        <mxCell id="4AHe8ReUwOb6yBchw7mW-3" value="指标定义、获取方案、告警阈值" style="rounded=0;whiteSpace=wrap;html=1;fillColor=#FFF4C3;" vertex="1" parent="77e6c97f196da883-5">
          <mxGeometry x="20" y="340" width="120" height="60" as="geometry" />
        </mxCell>
        <mxCell id="4AHe8ReUwOb6yBchw7mW-44" style="edgeStyle=orthogonalEdgeStyle;rounded=0;orthogonalLoop=1;jettySize=auto;html=1;exitX=1;exitY=0.5;exitDx=0;exitDy=0;entryX=1;entryY=0.5;entryDx=0;entryDy=0;fontColor=#FF3333;strokeColor=default;" edge="1" parent="77e6c97f196da883-5" source="4AHe8ReUwOb6yBchw7mW-29" target="4AHe8ReUwOb6yBchw7mW-3">
          <mxGeometry relative="1" as="geometry" />
        </mxCell>
        <mxCell id="4AHe8ReUwOb6yBchw7mW-29" value="能否先出指标" style="rhombus;whiteSpace=wrap;html=1;" vertex="1" parent="77e6c97f196da883-5">
          <mxGeometry x="30" y="60" width="100" height="60" as="geometry" />
        </mxCell>
        <mxCell id="4AHe8ReUwOb6yBchw7mW-47" value="指标筛选" style="rounded=0;whiteSpace=wrap;html=1;fillColor=#FFF4C3;" vertex="1" parent="77e6c97f196da883-5">
          <mxGeometry x="20" y="200" width="120" height="60" as="geometry" />
        </mxCell>
        <mxCell id="77e6c97f196da883-6" value="测试组" style="swimlane;html=1;startSize=20;" parent="77e6c97f196da883-1" vertex="1">
          <mxGeometry x="720" y="20" width="160" height="660" as="geometry" />
        </mxCell>
        <mxCell id="4AHe8ReUwOb6yBchw7mW-7" value="插件测试" style="rounded=0;whiteSpace=wrap;html=1;fillColor=#F8CECC;" vertex="1" parent="77e6c97f196da883-6">
          <mxGeometry x="20" y="270" width="120" height="60" as="geometry" />
        </mxCell>
        <mxCell id="4AHe8ReUwOb6yBchw7mW-45" style="edgeStyle=orthogonalEdgeStyle;rounded=0;orthogonalLoop=1;jettySize=auto;html=1;exitX=0;exitY=0.5;exitDx=0;exitDy=0;entryX=1;entryY=0.5;entryDx=0;entryDy=0;fontColor=#FF3333;strokeColor=default;" edge="1" parent="77e6c97f196da883-1" source="4AHe8ReUwOb6yBchw7mW-3" target="4AHe8ReUwOb6yBchw7mW-40">
          <mxGeometry relative="1" as="geometry" />
        </mxCell>
        <mxCell id="4AHe8ReUwOb6yBchw7mW-46" style="edgeStyle=orthogonalEdgeStyle;rounded=0;orthogonalLoop=1;jettySize=auto;html=1;exitX=0.5;exitY=1;exitDx=0;exitDy=0;entryX=0.5;entryY=0;entryDx=0;entryDy=0;fontColor=#FF3333;strokeColor=default;" edge="1" parent="77e6c97f196da883-1" source="4AHe8ReUwOb6yBchw7mW-29" target="4AHe8ReUwOb6yBchw7mW-6">
          <mxGeometry relative="1" as="geometry" />
        </mxCell>
        <mxCell id="4AHe8ReUwOb6yBchw7mW-49" style="edgeStyle=orthogonalEdgeStyle;rounded=0;orthogonalLoop=1;jettySize=auto;html=1;exitX=1;exitY=0.5;exitDx=0;exitDy=0;entryX=0;entryY=0.5;entryDx=0;entryDy=0;fontColor=#FF3333;strokeColor=default;" edge="1" parent="77e6c97f196da883-1" source="4AHe8ReUwOb6yBchw7mW-6" target="4AHe8ReUwOb6yBchw7mW-47">
          <mxGeometry relative="1" as="geometry" />
        </mxCell>
        <mxCell id="4AHe8ReUwOb6yBchw7mW-50" style="edgeStyle=orthogonalEdgeStyle;rounded=0;orthogonalLoop=1;jettySize=auto;html=1;exitX=0.5;exitY=1;exitDx=0;exitDy=0;entryX=0.5;entryY=1;entryDx=0;entryDy=0;fontColor=#FF3333;strokeColor=default;" edge="1" parent="77e6c97f196da883-1" source="4AHe8ReUwOb6yBchw7mW-47" target="4AHe8ReUwOb6yBchw7mW-6">
          <mxGeometry relative="1" as="geometry" />
        </mxCell>
        <mxCell id="4AHe8ReUwOb6yBchw7mW-22" value="项目经理" style="swimlane;html=1;startSize=20;" vertex="1" parent="1">
          <mxGeometry x="70" y="-40" width="160" height="660" as="geometry" />
        </mxCell>
        <mxCell id="4AHe8ReUwOb6yBchw7mW-23" value="插件需求" style="rounded=0;whiteSpace=wrap;html=1;fillColor=#FFCE9F;" vertex="1" parent="4AHe8ReUwOb6yBchw7mW-22">
          <mxGeometry x="20" y="60" width="120" height="60" as="geometry" />
        </mxCell>
        <mxCell id="4AHe8ReUwOb6yBchw7mW-28" value="插件上线" style="rounded=0;whiteSpace=wrap;html=1;fillColor=#FFCE9F;" vertex="1" parent="4AHe8ReUwOb6yBchw7mW-22">
          <mxGeometry x="20" y="530" width="120" height="60" as="geometry" />
        </mxCell>
        <mxCell id="4AHe8ReUwOb6yBchw7mW-9" value="成功" style="rhombus;whiteSpace=wrap;html=1;" vertex="1" parent="4AHe8ReUwOb6yBchw7mW-22">
          <mxGeometry x="40" y="400" width="80" height="40" as="geometry" />
        </mxCell>
        <mxCell id="4AHe8ReUwOb6yBchw7mW-8" value="插件试运行" style="rounded=0;whiteSpace=wrap;html=1;fillColor=#FFCE9F;" vertex="1" parent="4AHe8ReUwOb6yBchw7mW-22">
          <mxGeometry x="10" y="320" width="120" height="60" as="geometry" />
        </mxCell>
        <mxCell id="4AHe8ReUwOb6yBchw7mW-13" style="edgeStyle=orthogonalEdgeStyle;rounded=0;orthogonalLoop=1;jettySize=auto;html=1;exitX=0.5;exitY=1;exitDx=0;exitDy=0;entryX=0.5;entryY=0;entryDx=0;entryDy=0;" edge="1" parent="4AHe8ReUwOb6yBchw7mW-22" source="4AHe8ReUwOb6yBchw7mW-8" target="4AHe8ReUwOb6yBchw7mW-9">
          <mxGeometry relative="1" as="geometry" />
        </mxCell>
        <mxCell id="4AHe8ReUwOb6yBchw7mW-15" value="是" style="edgeStyle=orthogonalEdgeStyle;rounded=0;orthogonalLoop=1;jettySize=auto;html=1;exitX=0.5;exitY=1;exitDx=0;exitDy=0;entryX=0.5;entryY=0;entryDx=0;entryDy=0;" edge="1" parent="1" source="4AHe8ReUwOb6yBchw7mW-9" target="4AHe8ReUwOb6yBchw7mW-14">
          <mxGeometry relative="1" as="geometry" />
        </mxCell>
        <mxCell id="4AHe8ReUwOb6yBchw7mW-17" style="edgeStyle=orthogonalEdgeStyle;rounded=0;orthogonalLoop=1;jettySize=auto;html=1;exitX=0.5;exitY=1;exitDx=0;exitDy=0;entryX=0.5;entryY=0;entryDx=0;entryDy=0;" edge="1" parent="1" source="4AHe8ReUwOb6yBchw7mW-9" target="4AHe8ReUwOb6yBchw7mW-16">
          <mxGeometry relative="1" as="geometry" />
        </mxCell>
        <mxCell id="4AHe8ReUwOb6yBchw7mW-51" value="" style="rounded=0;whiteSpace=wrap;html=1;fontColor=#FF3333;fillColor=none;" vertex="1" parent="1">
          <mxGeometry x="420" y="100" width="180" height="290" as="geometry" />
        </mxCell>
      </root>
    </mxGraphModel>
  </diagram>
</mxfile>
